<svg version="1.1" id="Layer_1" xmlns="http://www.w3.org/2000/svg" x="0" y="0" width="200" height="200" viewBox="0 0 64 64" xml:space="preserve" enable-background="new 0 0 64 64"><title>compatibility</title><rect data-element="frame" x="0" y="0" width="64" height="64" rx="32" ry="32" stroke="none" fill="#1c1c1c"/><g class="nc-icon-wrapper" transform="translate(12.8 12.8) scale(0.6)" stroke-width="3" fill="#ededed"><path class="st0" d="M54.3 25V9.7H39.1c0-4.2-3.4-7.7-7.7-7.7s-7.7 3.4-7.7 7.7H5.6v13.4c5.3 0 9.6 4.3 9.6 9.6s-4.3 9.6-9.6 9.6v17.2h16.3c0-5.3 4.3-9.6 9.6-9.6s9.6 4.3 9.6 9.6h13.4V40.3c4.2 0 7.7-3.4 7.7-7.7S58.6 25 54.3 25z" fill="none" stroke="#ededed" stroke-linecap="round" stroke-linejoin="round" stroke-miterlimit="10"/></g></svg>