<svg version="1.1" id="Layer_1" xmlns="http://www.w3.org/2000/svg" x="0" y="0" width="200" height="200" viewBox="0 0 64 64" xml:space="preserve" enable-background="new 0 0 64 64"><title>speed</title><rect data-element="frame" x="0" y="0" width="64" height="64" rx="32" ry="32" stroke="none" fill="#1c1c1c"/><g class="nc-icon-wrapper" transform="translate(12.8 12.8) scale(0.6)" stroke-width="3" fill="#ededed"><path class="st0" d="M40 13.3c-2.5-1.1-5.3-1.6-8-1.6-11.3 0-20.4 9.1-20.4 20.4" fill="none" stroke="#ededed" stroke-linecap="round" stroke-linejoin="round" stroke-miterlimit="10"/><path class="st0" d="M52.4 32c0-2.7-.6-5.5-1.6-8" fill="none" stroke="#ededed" stroke-linecap="round" stroke-linejoin="round" stroke-miterlimit="10"/><path class="st0" d="M36.2 27.8l11.1-11.1" fill="none" stroke="#ededed" stroke-linecap="round" stroke-linejoin="round" stroke-miterlimit="10"/><path class="st0" d="M32 3c16 0 29 13 29 29S48 61 32 61 3 48 3 32 16 3 32 3z" fill="none" stroke="#ededed" stroke-linecap="round" stroke-linejoin="round" stroke-miterlimit="10"/><path class="st0" d="M32 26c3.3 0 6 2.7 6 6s-2.7 6-6 6-6-2.7-6-6 2.7-6 6-6z" fill="none" stroke="#ededed" stroke-linecap="round" stroke-linejoin="round" stroke-miterlimit="10"/></g></svg>